<?xml version="1.0" encoding="utf-8"?>
<!-- Generator: Adobe Illustrator 24.1.3, SVG Export Plug-In . SVG Version: 6.00 Build 0)  -->
<svg version="1.1" id="Layer_1" xmlns="http://www.w3.org/2000/svg" xmlns:xlink="http://www.w3.org/1999/xlink" x="0px" y="0px"
	 viewBox="0 0 1125 2436" style="enable-background:new 0 0 1125 2436;" xml:space="preserve">
<style type="text/css">
	.st0{fill:#C8CACB;}
	.st1{fill:none;stroke:#000000;stroke-width:5.6693;stroke-miterlimit:10;}
	.st2{fill:#FFFFFF;}
</style>
<path class="st0" d="M499.2,1218.3c0-35.1,28.4-63.5,63.5-63.5c35.1,0,63.5,28.4,63.5,63.5s-28.4,63.5-63.5,63.5"/>
<path class="st0" d="M562.7,1281.8c-35.1,0-63.5-28.4-63.5-63.5"/>
<path class="st1" d="M530.7,1206.3c0.9-0.8,4.6-4.3,10.5-4.5c6.5-0.2,10.8,3.8,11.5,4.5"/>
<path class="st1" d="M572.8,1206.7c0.9-0.8,4.6-4.3,10.5-4.5c6.5-0.2,10.8,3.8,11.5,4.5"/>
<path d="M593.7,1229.3c0.6,17.8-13.6,32.7-31,33c-17.7,0.3-32.7-14.8-32-33c8,2.1,19,4.1,32,4
	C575.2,1233.3,585.8,1231.4,593.7,1229.3z"/>
<path class="st2" d="M592.2,1231.8c0.1,0.5,0.2,1.2,0,2c-1.4,7.2-18.7,9.9-29.2,10c-11.5,0.1-29.3-2.7-30.8-10c-0.2-0.8-0.1-1.5,0-2
	c7.6,2.1,18.2,4.2,31,4.1C575,1235.8,584.9,1233.8,592.2,1231.8z"/>
</svg>
