<svg id="Layer_1" data-name="Layer 1" xmlns="http://www.w3.org/2000/svg" viewBox="0 0 127 127"><defs><style>.cls-1{fill:#bebebe;}.cls-2{fill:none;stroke:#000;stroke-miterlimit:10;stroke-width:5.67px;}.cls-3{fill:#fff;}</style></defs><path class="cls-1" d="M63.5,0A63.5,63.5,0,1,1,0,63.5H0A63.46,63.46,0,0,1,63.42,0h.08" transform="translate(0 0)"/><path class="cls-2" d="M31.5,51.5a15.68,15.68,0,0,1,22,0" transform="translate(0 0)"/><path class="cls-2" d="M73.6,51.9a15.68,15.68,0,0,1,22,0" transform="translate(0 0)"/><path d="M94.5,74.5c.6,17.8-13.6,32.7-31,33-17.7.3-32.7-14.8-32-33a122.9,122.9,0,0,0,32,4A125.7,125.7,0,0,0,94.5,74.5Z" transform="translate(0 0)"/><path class="cls-3" d="M93,77a4.5,4.5,0,0,1,0,2c-1.4,7.2-18.7,9.9-29.2,10-11.5.1-29.3-2.7-30.8-10a4.5,4.5,0,0,1,0-2A111.74,111.74,0,0,0,93,77Z" transform="translate(0 0)"/></svg>