<?xml version="1.0" encoding="utf-8"?>
<!-- Generator: Adobe Illustrator 24.1.3, SVG Export Plug-In . SVG Version: 6.00 Build 0)  -->
<svg version="1.1" id="Layer_1" xmlns="http://www.w3.org/2000/svg" xmlns:xlink="http://www.w3.org/1999/xlink" x="0px" y="0px"
	 viewBox="0 0 1125 2436" style="enable-background:new 0 0 1125 2436;" xml:space="preserve">
<style type="text/css">
	.st0{fill:#FFED83;}
	.st1{fill:none;stroke:#000000;stroke-width:5.6693;stroke-miterlimit:10;}
	.st2{fill:#FFFFFF;}
</style>
<path class="st0" d="M802.1,1214.9c35.1,0,63.5,28.4,63.5,63.5s-28.4,63.5-63.5,63.5c-35.1,0-63.5-28.4-63.5-63.5
	S767,1214.9,802.1,1214.9"/>
<path class="st1" d="M770.1,1266.4c0.9-0.8,4.6-4.3,10.5-4.5c6.5-0.2,10.8,3.8,11.5,4.5"/>
<path class="st1" d="M812.2,1266.8c0.9-0.8,4.6-4.3,10.5-4.5c6.5-0.2,10.8,3.8,11.5,4.5"/>
<path d="M833.1,1289.4c0.6,17.8-13.6,32.7-31,33c-17.7,0.3-32.7-14.8-32-33c8,2.1,19,4.1,32,4
	C814.6,1293.4,825.2,1291.4,833.1,1289.4z"/>
<path class="st2" d="M831.6,1291.9c0.1,0.5,0.2,1.2,0,2c-1.4,7.2-18.7,9.9-29.2,10c-11.5,0.1-29.3-2.7-30.8-10c-0.2-0.8-0.1-1.5,0-2
	c7.6,2.1,18.2,4.2,31,4.1C814.4,1295.9,824.3,1293.9,831.6,1291.9z"/>
</svg>
