<svg id="Layer_1" data-name="Layer 1" xmlns="http://www.w3.org/2000/svg" viewBox="0 0 127 127"><defs><style>.cls-1{fill:#ffed83;}.cls-2{fill:none;stroke:#000;stroke-miterlimit:10;stroke-width:5.67px;}.cls-3{fill:#fff;}</style></defs><path class="cls-1" d="M562.5,295.1A63.5,63.5,0,1,1,499,358.6a63.46,63.46,0,0,1,63.5-63.5" transform="translate(-499 -295.1)"/><path class="cls-2" d="M530.5,346.6a15.67,15.67,0,0,1,22,0" transform="translate(-499 -295.1)"/><path class="cls-2" d="M572.6,347a15.67,15.67,0,0,1,22,0" transform="translate(-499 -295.1)"/><path d="M593.5,369.6c.6,17.8-13.6,32.7-31,33-17.7.3-32.7-14.8-32-33a122.74,122.74,0,0,0,32,4A125.75,125.75,0,0,0,593.5,369.6Z" transform="translate(-499 -295.1)"/><path class="cls-3" d="M592,372.1a4.45,4.45,0,0,1,0,2c-1.4,7.2-18.7,9.9-29.2,10-11.5.1-29.3-2.7-30.8-10a4.45,4.45,0,0,1,0-2,111.69,111.69,0,0,0,60,0Z" transform="translate(-499 -295.1)"/></svg>