<svg width="18" height="21" viewBox="0 0 18 21" fill="none" xmlns="http://www.w3.org/2000/svg">
<path d="M9 9.55C7.18 7.85 4.88 6.66 2.32 6.2C1.11 5.99 0 6.95 0 8.18V14.42C0 16.1 0.72 16.98 1.71 17.11C4.21 17.43 6.48 18.46 8.34 19.98C8.69 20.27 9.26 20.3 9.61 20.02C11.48 18.49 13.77 17.44 16.29 17.12C17.23 16.99 18 16.06 18 15.1V8.18C18 6.95 16.89 5.99 15.68 6.2C13.12 6.66 10.82 7.85 9 9.55ZM9 6C10.66 6 12 4.66 12 3C12 1.34 10.66 0 9 0C7.34 0 6 1.34 6 3C6 4.66 7.34 6 9 6Z" fill="#777777"/>
</svg>
