<svg id="Laag_1" data-name="Laag 1" xmlns="http://www.w3.org/2000/svg" viewBox="0 0 469.33 512"><defs><style>.cls-1{fill:#fff;}</style></defs><title>share</title><path class="cls-1" d="M474.33,85.33A69.33,69.33,0,1,1,405,16,69.33,69.33,0,0,1,474.33,85.33Z" transform="translate(-21 0)"/><path class="cls-1" d="M405,170.67a85.33,85.33,0,1,1,85.33-85.34A85.42,85.42,0,0,1,405,170.67ZM405,32a53.33,53.33,0,1,0,53.33,53.33A53.39,53.39,0,0,0,405,32Z" transform="translate(-21 0)"/><path class="cls-1" d="M474.33,426.67A69.33,69.33,0,1,1,405,357.33,69.33,69.33,0,0,1,474.33,426.67Z" transform="translate(-21 0)"/><path class="cls-1" d="M405,512a85.33,85.33,0,1,1,85.33-85.33A85.42,85.42,0,0,1,405,512Zm0-138.67a53.33,53.33,0,1,0,53.33,53.34A53.39,53.39,0,0,0,405,373.33Z" transform="translate(-21 0)"/><path class="cls-1" d="M175.67,256a69.33,69.33,0,1,1-69.34-69.33A69.33,69.33,0,0,1,175.67,256Z" transform="translate(-21 0)"/><path class="cls-1" d="M106.33,341.33A85.33,85.33,0,1,1,191.67,256,85.42,85.42,0,0,1,106.33,341.33Zm0-138.66A53.33,53.33,0,1,0,159.67,256,53.39,53.39,0,0,0,106.33,202.67Z" transform="translate(-21 0)"/><path class="cls-1" d="M156.7,245.76a21.33,21.33,0,0,1-10.58-39.87L344.07,93a21.34,21.34,0,1,1,21.12,37.08L167.24,243A21.19,21.19,0,0,1,156.7,245.76Z" transform="translate(-21 0)"/><path class="cls-1" d="M354.63,421.76a21.2,21.2,0,0,1-10.54-2.8l-198-112.85A21.34,21.34,0,0,1,167.26,269l198,112.85a21.34,21.34,0,0,1-10.58,39.88Z" transform="translate(-21 0)"/></svg>